# xmcd
#
# Track frame offsets:
#	150
#	12185
#	23220
#	35522
#	48441
#	61185
#	72100
#	84532
#	97130
#	110599
#	126160
#	139772
#
# Disc length: 2053 seconds
#
# Revision: 2
# Processed by: cddbd v1.5.2PL0 Copyright (c) Steve Scherf et al.
# Submitted via: audiograbber 1.83.01
#
DISCID=a108030c
DTITLE=Esther Phillips - And I Love Him
DYEAR=1966
DGENRE=R&B Oldies
TTITLE0=And I Love Him
TTITLE1='Tis Autumn
TTITLE2=Shangri-La
TTITLE3=Moonglow and Theme From "Picnic"
TTITLE4=Out Of The Blue
TTITLE5=People
TTITLE6=Makin' Whoopee
TTITLE7=The Girl From Ipanema
TTITLE8=I Wish You Love
TTITLE9=If You Love Me, Really Love Me
TTITLE10=Too Soon To Know
TTITLE11=Make Believe Dreams
EXTD=Esther Phillips - Original Album Series (2016) [Box-Set]\n\nMARO\n
EXTT0=
EXTT1=
EXTT2=
EXTT3=
EXTT4=
EXTT5=
EXTT6=
EXTT7=
EXTT8=
EXTT9=
EXTT10=
EXTT11=
PLAYORDER=
